<!-- <a href="https://iconscout.com/icons/free-codecamp" target="_blank">Free Free Codecamp Icon</a> by <a href="https://iconscout.com/contributors/icon-54">Icon 54</a> on <a href="https://iconscout.com">IconScout</a> -->

<svg xmlns="http://www.w3.org/2000/svg" viewBox="0 0 24 24" id="free-codecamp"><path fill="#126100" d="M21.752 5.559c-.793-1.009-1.424-1.513-1.842-1.513a.546.546 0 0 0-.346.148.47.47 0 0 0-.164.342c0 .223.196.505.57.844 1.873 1.767 2.816 4.052 2.816 6.872 0 2.537-.913 4.677-2.727 6.396-.449.41-.674.695-.674.881a.51.51 0 0 0 .15.347c.09.091.225.124.346.124.345 0 .853-.344 1.488-1.066 1.744-1.945 2.598-4.142 2.598-6.619l.033.027c0-2.626-.75-4.897-2.248-6.783zM4.075 19.967a.533.533 0 0 0 .352-.158.48.48 0 0 0 .16-.345c0-.219-.189-.505-.569-.846-1.87-1.76-2.821-4.05-2.821-6.871 0-2.543.93-4.674 2.711-6.402.449-.437.674-.723.674-.91 0-.124-.06-.217-.15-.311A.485.485 0 0 0 4.088 4c-.347 0-.855.344-1.49 1.066C.854 7.01 0 9.21 0 11.685c0 2.666.734 4.926 2.247 6.778.795.999 1.392 1.504 1.828 1.504zm14.292-2.136c0-.38-.32-.662-.668-.662H6.715a.648.648 0 0 0-.668.662c0 .376.318.66.668.66h10.984a.65.65 0 0 0 .668-.66zm-9.379-6.534a7.009 7.009 0 0 0-.239 1.355c-.075 1.45.689 2.777 1.888 3.586.27.188.749.416 1.094.298-1.02-.538-1.348-.975-1.514-1.604-.366-1.457 1.015-2.388 1.612-3.542.16-.307.277-.644.231-.994-.013-.101-.102-.493-.231-.663.58-.072.964.319 1.169.814.214.534.349 1.099.244 1.677-.031.193-.18.801.105.83.389.06.719-.46.644-.95a12.5 12.5 0 0 1-.087-.578c.42.504.599 1.01.659 1.558.115.995-.315 2.301-1.123 3.102.345-.341.774-.579 1.093-.948.33-.372.584-.803.779-1.261.449-1.024.703-2.168.629-3.281a6.802 6.802 0 0 0-.27-1.618c-.18-.594-.449-1.144-.884-1.589l-.36-.341c-.104-.09-.328-.223-.389-.343.254.593.509 1.202.314 1.841-.09.283-.42.98-.839.803-.405-.164-.359-.996-.39-1.338-.09-.831-.27-1.647-.719-2.359a2.831 2.831 0 0 0-.959-.966c-.523-.312-1.062-.519-1.662-.296.135-.045.478.341.539.416.21.248.375.535.465.841.179.623.014 1.342-.211 1.935-.449 1.236-1.213 2.346-1.588 3.615z"></path></svg>